<?xml version="1.0" encoding="utf-8"?>
<!-- Generator: Adobe Illustrator 16.0.0, SVG Export Plug-In . SVG Version: 6.00 Build 0)  -->
<!DOCTYPE svg PUBLIC "-//W3C//DTD SVG 1.1//EN" "http://www.w3.org/Graphics/SVG/1.1/DTD/svg11.dtd">
<svg version="1.1" id="레이어_1" xmlns="http://www.w3.org/2000/svg" xmlns:xlink="http://www.w3.org/1999/xlink" x="0px"
	 y="0px" width="800px" height="800px" viewBox="0 0 800 800" enable-background="new 0 0 800 800" xml:space="preserve">
<g>
	<path fill="#FFFFFF" d="M191.208,687.714c-10.064-8.814-27.295-25.069-42.72-44.961C77.869,563.526-2.827,355.655,131.449,167.122
		c55.4-77.735,134.892-130.04,213.868-151.257C529.53-33.621,670.994,53.409,735.81,123.534c7.199,7.802,6.188,17.773,0.686,22.346
		c-8.029,6.769-15.278,3.276-31.438-1.443c-25.31-7.321-47.008-9.03-70.342-6.092c-54.135,6.935-100.985,57.097-94.509,127.197
		c5.95,63.985,55.256,110.173,89.874,140.733c121.743,107.138,81.047,222.005,71.1,247.244
		c-33.643,85.657-119.84,146.102-231.65,146.102c-46.407,0-113.509-12.065-180.924-54.835c-2.636-1.131-5.176-4.622-2.012-10.354
		c5.143-13.028,26.684-51.005,35.968-61.986c33.521,38.724,90.077,75.181,152.89,77.471
		c85.925,3.131,141.227-43.348,161.527-102.347c22.804-66.224-1.457-133.796-65.646-194.747
		c-55.302-52.495-104.67-101.164-107.582-184.511C460.115,161.583,553.08,98.2,639.389,102.464
		c2.662,0.119-119.396-87.922-275.961-35.498C286.8,92.661,240.926,137.91,218.905,163.629c-3.252,3.998-1.206,7.008-0.098,8.621
		c2.469,3.492,55.651,77.759,55.651,77.759l-95.987-22.083c0,0-3.987-0.987-5.972,2.287
		c-30.548,52.619-75.495,204.79,24.937,343.378c0,0,85.525-135.484,255.37-147.041c11.308-0.747,9.85,3.273,2.434,5.97
		c-151.714,55.751-211.567,167.029-250.267,252.808C202.623,690.652,196.315,692.216,191.208,687.714z"/>
	<g>
		<path fill="#FFFFFF" d="M347.581,583.176c0,0,9.452-4.238,12.137-5.73l0.072,65.791h11.836v-77.398l-1.901-1.277l-0.614,0.313
			c-8.646,4.286-17.52,8.332-25.034,11.438L347.581,583.176z"/>
		<path fill="#FFFFFF" d="M410.784,604.56c9.682,0,14.351,4.985,14.351,15.195c0,10.452-6.478,17.194-16.52,17.194
			c-7.271,0-12.21-4.864-13.992-6.959l-1.456-1.711l-2.876,10.236l0.912,0.409c4.146,1.974,9.455,3.998,17.171,3.998
			c16.988,0,29.31-10.333,29.31-24.564c0-13.051-10.067-16.807-16.219-17.916c6.716-2.793,12.701-8.934,12.701-18.206
			c0-10.835-8.525-17.507-22.263-17.555c-11.631-0.072-17.58,7.537-17.58,7.537l5.105,8.861l0.844-2.455
			c1.372-4.022,5.658-8.066,11.22-8.066c4.878,0,10.597,3.25,10.597,12.4c0,7.128-1.926,15.629-11.305,15.629l-6.117-0.506v7.322
			C404.667,605.404,408.087,604.487,410.784,604.56z"/>
		<path fill="#FFFFFF" d="M453.926,627.558l3.153,12.523c0,0,4.938,2.842,11.86,2.842c19.892-0.098,33.727-18.64,33.727-45.322
			c0-29.74-18.122-32.919-25.914-32.919c-15.084,0-25.631,10.162-25.631,24.756c0,14.304,8.644,23.142,22.549,23.142
			c7.106,0,12.645-2.793,16.763-7.946c-0.867,16.592-7.403,31.739-20.939,31.835C458.549,636.539,453.926,627.558,453.926,627.558z
			 M475.598,606.077c-8.344,0-12.401-5.467-12.401-16.64c0-11.271,5.42-18.879,13.498-18.879c8.019,0,13.437,6.452,13.437,16.038
			C490.131,596.275,485.158,606.077,475.598,606.077z"/>
		<path fill="#FFFFFF" d="M549.974,598.444c6.718-3.059,11.103-9.151,11.103-16.401c0-8.018-5.805-17.361-22.227-17.361
			c-12.487,0-21.879,8.043-21.879,18.664c0,7.945,5.418,13.532,11.198,15.651c-9.682,3.854-15.099,11.223-15.099,21.19
			c0,13.584,10.33,22.735,25.779,22.735c14.941,0,25.838-10.621,25.838-25.238C564.688,604.151,554.682,599.769,549.974,598.444z
			 M528.373,583.489c0-3.033,0.732-12.931,10.558-12.931c9.669,0,10.78,9.029,10.78,12.931c0,3.011-0.772,12.907-10.78,12.907
			C529.106,596.396,528.373,586.5,528.373,583.489z M538.85,636.949c-8.178,0-13.741-6.959-13.741-17.313
			c0-10.357,5.563-17.291,13.741-17.291c8.163,0,13.701,6.934,13.701,17.291C552.551,630.134,547.193,636.949,538.85,636.949z"/>
	</g>
</g>
</svg>
